<?xml version="1.0" standalone="no"?>
<!DOCTYPE svg PUBLIC "-//W3C//DTD SVG 20010904//EN"
 "http://www.w3.org/TR/2001/REC-SVG-20010904/DTD/svg10.dtd">
<svg version="1.0" xmlns="http://www.w3.org/2000/svg"
 width="3994.000000pt" height="2426.000000pt" viewBox="0 0 3994.000000 2426.000000"
 preserveAspectRatio="xMidYMid meet">

<g transform="translate(0.000000,2426.000000) scale(0.100000,-0.100000)"
fill="#000000" stroke="none">
<path d="M14988 19977 c-20 -17 -64 -54 -98 -82 -35 -27 -68 -54 -74 -60 -6
-5 -58 -48 -116 -95 -156 -125 -594 -483 -600 -490 -3 -3 -27 -23 -55 -45 -27
-22 -55 -44 -61 -50 -7 -5 -27 -22 -45 -37 -63 -49 -324 -262 -329 -268 -4 -4
-72 -59 -124 -100 -11 -8 -51 -42 -90 -75 -39 -33 -91 -76 -116 -95 -25 -19
-74 -59 -110 -90 -36 -30 -83 -68 -104 -85 -22 -16 -78 -62 -125 -100 -47 -39
-135 -111 -196 -160 -60 -49 -112 -92 -115 -95 -3 -3 -39 -32 -80 -65 -217
-174 -305 -248 -308 -255 -1 -4 37 -62 85 -129 48 -67 95 -132 103 -145 8 -12
76 -106 150 -210 74 -103 142 -197 150 -210 8 -12 188 -264 400 -560 402 -560
419 -585 448 -626 14 -21 154 -217 457 -639 11 -16 29 -41 40 -57 27 -41 1014
-1423 1037 -1454 37 -49 888 -1239 918 -1284 8 -12 98 -138 200 -280 102 -141
192 -267 200 -280 8 -12 65 -91 125 -175 188 -261 205 -286 211 -298 3 -7 -11
-36 -33 -65 -41 -57 -62 -86 -117 -163 -20 -27 -56 -77 -81 -110 -24 -33 -60
-82 -80 -110 -40 -57 -67 -94 -215 -296 -58 -78 -112 -153 -120 -165 -14 -21
-281 -387 -379 -521 -25 -34 -55 -75 -66 -90 -34 -47 -194 -267 -209 -288 -8
-11 -48 -65 -88 -120 -41 -55 -89 -122 -108 -150 -19 -27 -40 -56 -47 -65 -28
-35 -162 -219 -199 -271 -35 -51 -85 -119 -324 -444 -36 -49 -82 -112 -100
-140 -19 -27 -39 -55 -45 -61 -5 -6 -28 -37 -50 -68 -22 -31 -70 -98 -108
-149 -37 -51 -75 -103 -85 -116 -9 -14 -31 -43 -47 -65 -17 -23 -38 -52 -47
-66 -19 -29 -203 -280 -216 -295 -8 -10 -142 -195 -177 -245 -11 -15 -42 -58
-68 -95 -39 -52 -46 -69 -37 -80 6 -8 10 -24 8 -37 -2 -19 -9 -23 -42 -24 -23
-1 -42 -7 -47 -16 -5 -9 -28 -42 -52 -74 -58 -78 -191 -261 -217 -299 -12 -16
-60 -82 -107 -145 -46 -63 -98 -134 -114 -158 l-29 -43 0 -1152 c1 -1090 2
-1151 18 -1130 41 51 148 198 359 491 21 29 48 65 59 80 12 15 74 99 137 187
64 88 121 166 127 172 9 11 71 97 120 166 8 12 57 78 107 147 51 69 111 150
133 180 133 184 201 277 212 292 7 9 31 42 53 73 22 30 90 123 150 204 61 82
139 190 175 240 36 50 79 109 95 131 17 22 84 114 150 205 124 171 309 422
323 440 4 6 23 33 42 60 19 28 38 52 41 55 3 3 25 32 48 65 23 33 62 87 87
120 24 33 62 85 84 115 52 73 210 289 306 420 94 128 129 175 227 310 43 58
85 116 95 129 48 66 174 239 190 260 26 38 80 110 162 222 41 56 89 120 105
144 17 23 87 120 157 216 306 418 378 517 531 728 81 112 131 180 168 229 30
40 118 163 454 642 21 30 50 71 64 91 27 38 188 267 231 329 14 19 42 58 63
87 l39 52 -34 47 c-18 25 -40 56 -48 68 -8 12 -87 122 -175 245 -88 122 -178
248 -200 279 -22 31 -112 157 -200 280 -88 123 -167 233 -175 245 -8 12 -64
91 -125 175 -60 85 -117 164 -125 175 -8 12 -71 101 -140 197 -101 140 -315
439 -468 653 -12 18 -33 48 -47 67 -14 19 -36 51 -50 70 -14 19 -36 51 -50 70
-14 19 -35 49 -47 66 -13 17 -32 44 -43 60 -76 110 -727 1022 -785 1100 -14
18 -35 48 -48 66 -13 18 -91 128 -173 243 -82 116 -160 226 -174 245 -13 19
-47 67 -74 105 -28 39 -65 90 -82 115 -17 25 -64 89 -103 144 -39 54 -84 117
-101 141 -16 24 -38 53 -47 66 -10 13 -41 57 -70 98 -29 40 -76 105 -105 145
-29 39 -62 85 -73 101 -62 90 -305 431 -309 435 -4 3 -20 25 -36 49 -17 24
-39 56 -50 72 -11 15 -40 56 -64 91 -24 34 -71 98 -103 141 l-59 79 47 41 c26
23 60 51 75 62 15 11 47 36 71 56 440 363 547 449 557 449 6 0 93 -117 196
-265 52 -75 99 -141 200 -278 33 -45 69 -95 79 -112 11 -16 23 -34 28 -40 14
-18 227 -315 294 -410 19 -27 43 -61 53 -75 20 -27 197 -275 246 -345 37 -53
46 -66 138 -190 40 -55 104 -145 142 -200 37 -55 94 -136 127 -180 32 -44 134
-185 226 -314 92 -128 176 -246 187 -261 11 -16 46 -66 78 -112 32 -45 68 -97
80 -113 96 -134 197 -274 221 -309 16 -22 124 -173 240 -335 116 -161 218
-303 226 -315 26 -38 334 -471 342 -481 5 -5 50 -69 101 -140 102 -144 102
-144 190 -265 34 -47 71 -98 81 -115 11 -16 23 -34 28 -40 8 -10 63 -87 108
-150 12 -16 62 -86 111 -155 81 -113 112 -157 159 -224 8 -12 110 -154 225
-315 116 -161 228 -319 250 -351 54 -76 124 -174 157 -216 l26 -35 24 33 c43
58 172 240 241 338 37 52 106 149 153 215 48 66 97 136 110 155 12 19 50 73
83 120 34 47 73 103 87 125 15 22 47 66 71 99 24 32 42 64 39 72 -3 7 -83 122
-178 254 -216 301 -205 287 -252 354 -21 31 -57 81 -80 112 -22 30 -62 85 -89
122 -46 65 -178 250 -225 315 -32 46 -75 106 -92 131 -8 12 -76 107 -150 210
-145 201 -150 209 -223 312 -27 38 -59 83 -70 99 -18 24 -323 450 -415 578
-12 18 -30 43 -40 57 -9 14 -78 110 -152 214 -180 250 -178 247 -198 276 -9
15 -123 174 -252 354 -129 180 -242 337 -250 349 -27 39 -442 620 -484 678
-23 31 -58 80 -79 110 -21 30 -67 95 -103 144 -36 50 -87 122 -114 160 -28 39
-73 102 -101 140 -27 39 -58 81 -67 95 -27 40 -241 340 -282 395 -52 71 -273
381 -334 470 -19 28 -59 83 -88 123 -29 40 -75 103 -101 140 -267 375 -416
579 -510 696 -62 76 -125 155 -142 177 -16 21 -34 38 -40 38 -5 0 -26 -14 -47
-32z m1046 -1369 c12 -47 7 -66 -21 -75 -24 -8 -75 -1 -91 13 -10 7 35 57 62
69 42 18 43 18 50 -7z m-1678 -297 c-6 -10 52 -24 65 -15 5 3 9 -6 9 -20 0
-32 -37 -73 -72 -82 -27 -6 -28 -5 -28 34 0 23 -5 43 -12 46 -9 3 -6 11 11 25
24 22 36 27 27 12z m1919 -1569 c7 -32 -12 -93 -23 -75 -4 6 -18 13 -31 14
-54 8 -52 71 3 77 14 2 26 8 26 13 0 20 19 -2 25 -29z m1224 -778 c17 -14 31
-29 31 -33 0 -11 -72 -39 -89 -34 -9 2 -25 11 -36 19 -20 15 -19 16 13 45 18
16 36 29 41 29 5 0 23 -12 40 -26z m-2908 -644 c18 -10 18 -12 3 -27 -9 -9
-14 -26 -11 -40 5 -26 -20 -38 -64 -31 -19 2 -23 8 -21 29 2 15 -4 34 -13 42
-14 14 -14 17 2 26 23 14 79 14 104 1z m1200 -452 c44 -54 4 -115 -45 -69 -12
12 -27 21 -34 21 -14 0 -5 28 16 53 20 23 40 22 63 -5z m-319 -609 c-4 -43
-19 -58 -65 -66 -41 -6 -45 1 -26 55 8 23 20 35 42 41 45 13 52 9 49 -30z
m903 -522 c-1 -25 3 -43 7 -41 15 9 8 -3 -9 -17 -11 -10 -14 -10 -9 -1 5 9 -6
12 -43 12 -28 0 -51 2 -51 4 0 27 28 70 54 82 44 19 51 13 51 -39z m595 -1456
c13 -25 4 -48 -21 -56 -26 -8 -49 11 -49 40 0 37 52 48 70 16z m-850 -3071 l0
-50 -55 0 c-30 0 -55 3 -55 7 0 4 5 22 12 40 9 24 21 36 43 42 53 16 55 14 55
-39z m-655 -540 c3 -5 1 -10 -5 -10 -12 0 -2 -52 13 -61 19 -13 -36 -31 -75
-26 -48 6 -55 12 -39 31 7 8 12 25 11 38 -1 13 -2 26 -1 31 2 11 89 9 96 -3z
m-820 -2045 c4 -28 10 -43 17 -39 6 4 6 0 -1 -14 -12 -22 -38 -36 -43 -22 -2
5 -18 10 -36 12 -41 3 -45 9 -32 42 8 22 62 66 81 66 4 0 10 -20 14 -45z"/>
<path d="M25830 15418 c-184 -104 -351 -199 -370 -211 -19 -11 -55 -31 -80
-45 -25 -14 -88 -50 -140 -80 -52 -30 -165 -95 -250 -144 -85 -50 -171 -99
-190 -110 -19 -11 -112 -65 -207 -120 l-172 -100 -719 -1011 c-395 -557 -721
-1017 -725 -1024 -7 -11 9 -22 168 -118 117 -70 463 -274 730 -430 50 -29 171
-99 270 -155 162 -92 255 -145 353 -201 94 -54 165 -95 263 -149 47 -26 152
-86 235 -132 82 -47 169 -96 194 -110 78 -43 275 -155 595 -338 171 -97 330
-188 355 -202 25 -14 162 -93 305 -176 143 -83 301 -174 350 -203 50 -28 134
-80 188 -116 54 -35 146 -91 205 -124 159 -90 282 -170 277 -180 -9 -13 -162
-108 -405 -249 -138 -80 -158 -92 -310 -175 -107 -58 -308 -177 -428 -252 -37
-23 -87 -53 -110 -67 l-44 -26 -41 24 c-23 13 -127 73 -232 134 -104 60 -372
214 -595 342 -223 128 -463 267 -535 308 -71 41 -145 83 -162 93 -18 11 -48
28 -65 38 -18 10 -68 39 -110 64 -43 24 -83 49 -90 54 -7 6 -33 22 -58 35 -25
14 -125 73 -222 132 -97 58 -180 106 -183 106 -4 0 -43 -20 -88 -45 -44 -25
-81 -44 -82 -43 -2 2 -249 352 -550 778 -301 426 -553 781 -560 788 -10 11
-68 -65 -295 -385 -156 -219 -284 -405 -284 -413 0 -11 3422 -4858 3570 -5057
l24 -31 -1102 -809 c-606 -444 -1107 -809 -1113 -811 -7 -2 -722 940 -1590
2093 -868 1152 -1581 2095 -1584 2095 -3 0 -135 -182 -293 -405 l-287 -405
1382 -1952 1382 -1953 1000 -2 1000 -3 1155 911 c635 501 1196 943 1246 983
l91 71 -1034 1459 c-568 803 -1031 1461 -1030 1463 4 3 126 -64 187 -103 19
-12 82 -49 140 -82 58 -33 197 -112 310 -177 196 -113 321 -183 440 -248 30
-17 72 -41 92 -54 21 -13 40 -23 42 -23 2 0 32 -16 66 -35 l63 -36 66 39 c36
22 116 68 176 102 61 34 169 96 240 137 72 42 146 84 165 95 115 66 382 221
480 278 63 37 183 107 265 156 83 48 175 102 205 120 30 18 76 45 103 59 26
14 102 58 170 99 67 40 151 89 187 110 36 21 81 47 100 58 19 11 67 39 105 61
39 22 95 55 125 73 77 44 318 183 360 206 19 11 55 32 80 47 25 15 116 68 203
117 86 49 166 96 178 105 21 16 -14 38 -663 424 -178 106 -749 435 -754 435
-3 0 -39 20 -80 45 -40 25 -76 45 -80 45 -3 0 -31 15 -62 34 -32 19 -151 87
-267 151 -245 136 -875 497 -987 564 -42 25 -130 77 -195 115 -65 38 -138 81
-163 97 -25 15 -63 38 -86 51 -198 113 -718 411 -754 430 -25 14 -101 58 -168
97 -68 39 -126 71 -128 71 -2 0 -32 17 -66 38 -35 21 -83 50 -108 64 -88 50
-216 125 -283 166 -37 23 -70 42 -73 42 -2 0 -17 8 -32 19 -31 21 -237 144
-297 177 -159 86 -273 160 -274 176 -1 4 38 28 87 54 144 79 472 259 550 303
39 22 104 59 142 81 39 22 100 57 138 78 37 22 108 63 157 92 132 78 811 468
875 503 30 16 100 55 155 86 55 32 125 70 155 85 l55 28 65 -39 c36 -22 90
-53 120 -70 30 -17 82 -46 115 -65 98 -57 377 -218 420 -243 66 -37 231 -133
380 -220 77 -45 160 -94 185 -107 25 -14 62 -35 83 -47 20 -11 54 -30 75 -42
20 -12 42 -25 47 -29 6 -4 91 -53 190 -108 99 -55 232 -129 295 -164 63 -36
150 -83 193 -106 42 -23 87 -48 100 -56 21 -14 34 -7 222 108 237 144 268 162
532 303 112 59 201 113 200 118 -5 16 -249 176 -344 225 -48 25 -155 82 -237
128 -129 71 -194 110 -321 189 -11 7 -51 31 -90 53 -38 23 -90 54 -115 69 -25
15 -101 61 -170 101 -69 41 -147 88 -175 105 -27 18 -55 34 -60 36 -6 2 -60
34 -120 70 -61 36 -182 107 -270 159 -88 51 -223 130 -300 175 -77 46 -194
113 -260 150 -66 37 -160 91 -210 120 -49 29 -169 97 -265 150 -96 54 -200
113 -232 131 -31 19 -58 34 -60 33 -1 0 -154 -86 -338 -191z"/>
<path d="M12685 14848 c-27 -17 -309 -179 -625 -361 -316 -181 -748 -431 -960
-555 -212 -124 -424 -249 -472 -276 l-88 -51 0 -1765 0 -1765 353 -205 c193
-112 674 -390 1067 -618 393 -228 730 -423 748 -434 l32 -20 -2 532 -3 532
-205 124 c-257 156 -537 316 -845 482 l-240 130 -3 1239 -2 1238 247 144 c137
79 429 249 651 379 l402 235 0 524 c0 288 -1 523 -2 522 -2 0 -25 -14 -53 -31z"/>
<path d="M20623 11943 c-53 -76 -136 -192 -183 -258 -47 -66 -92 -130 -100
-141 -8 -12 -43 -61 -77 -110 -34 -49 -91 -129 -126 -179 -36 -49 -80 -112
-98 -138 -19 -26 -55 -77 -82 -112 l-47 -64 77 -106 c82 -111 112 -153 141
-195 9 -14 67 -95 127 -179 61 -84 123 -172 139 -195 16 -22 117 -164 225
-314 108 -151 214 -300 236 -331 40 -58 108 -152 155 -216 14 -19 35 -49 48
-67 13 -18 86 -121 163 -228 77 -107 147 -206 157 -220 15 -23 307 -433 373
-525 61 -85 250 -337 262 -350 6 -7 31 -37 54 -67 23 -29 98 -123 165 -208 67
-85 163 -207 212 -270 49 -63 103 -131 120 -151 17 -20 49 -60 71 -88 22 -29
60 -79 85 -110 25 -32 59 -75 75 -96 17 -21 50 -64 75 -94 25 -31 64 -81 87
-111 23 -30 50 -64 60 -75 17 -19 47 -56 103 -130 35 -46 153 -196 172 -220 9
-11 63 -78 119 -150 57 -71 108 -135 113 -141 6 -7 29 -35 51 -64 22 -28 71
-91 108 -138 38 -48 81 -102 95 -121 15 -19 38 -48 52 -65 14 -17 38 -48 53
-69 l28 -37 37 27 c20 16 39 30 42 33 3 3 28 21 55 39 28 19 52 37 55 41 3 3
25 19 49 35 25 17 127 91 227 165 101 74 234 171 295 215 139 99 209 154 209
164 0 4 -15 28 -34 52 -18 24 -111 152 -207 284 -95 132 -177 245 -181 250
-10 12 -103 140 -155 213 -36 50 -56 78 -164 225 -25 34 -110 152 -189 262
-79 110 -167 230 -195 267 -27 37 -60 82 -73 100 -12 18 -67 94 -122 168 -54
74 -108 149 -120 165 -63 88 -256 355 -370 511 -59 79 -217 298 -297 409 -304
423 -910 1271 -923 1290 -8 12 -24 35 -35 50 -43 60 -95 131 -115 160 -12 17
-51 71 -86 120 -36 50 -81 114 -102 143 -20 29 -53 74 -72 101 -19 27 -55 77
-79 111 -24 35 -50 70 -57 79 -17 21 -77 105 -111 156 -14 22 -51 74 -82 115
-31 41 -68 93 -83 115 -27 40 -76 109 -113 160 -92 127 -124 171 -147 205 -15
22 -32 40 -37 40 -6 0 -54 -62 -108 -137z m1057 -1596 c-1 -34 -35 -70 -60
-62 -19 6 -49 51 -39 58 2 2 17 13 33 25 33 25 66 15 66 -21z m220 -1827 c16
-16 18 -25 10 -40 -11 -20 -36 -25 -77 -14 -17 5 -23 14 -23 34 0 43 55 55 90
20z m1262 -756 c10 -9 -11 -68 -28 -81 -24 -17 -48 -1 -61 41 -6 19 -8 37 -5
40 7 8 87 8 94 0z m1402 -1116 c16 -26 -4 -53 -40 -53 -23 0 -30 5 -32 23 -7
47 47 69 72 30z m-84 -48 c0 -5 -2 -10 -4 -10 -3 0 -8 5 -11 10 -3 6 -1 10 4
10 6 0 11 -4 11 -10z"/>
</g>
</svg>
