<?xml version="1.0" encoding="UTF-8" standalone="no"?>
<!-- Created with Inkscape (http://www.inkscape.org/) -->

<svg
   version="1.1"
   id="svg2"
   xml:space="preserve"
   width="380.49332"
   height="363.29599"
   viewBox="0 0 380.49332 363.29599"
   sodipodi:docname="e85ff535f4d1cee1c0c625595e8ba4ec.ai"
   xmlns:inkscape="http://www.inkscape.org/namespaces/inkscape"
   xmlns:sodipodi="http://sodipodi.sourceforge.net/DTD/sodipodi-0.dtd"
   xmlns="http://www.w3.org/2000/svg"
   xmlns:svg="http://www.w3.org/2000/svg"><defs
     id="defs6"><clipPath
       clipPathUnits="userSpaceOnUse"
       id="clipPath16"><path
         d="m 292.685,13.764 h -5.85 L 233.768,59.99 V 36.283 L 67.41,184.94 v -122 l -4.142,-4.192 v 47.827 H 59.335 V 54.762 l -6.16,-6.211 v 72.361 H 49.293 V 44.617 l -6.677,-6.781 v 202.695 l 5.59,-5.124 L 67.41,217.86 208.923,88.562 233.768,65.839 Z"
         id="path14" /></clipPath><linearGradient
       x1="0"
       y1="0"
       x2="1"
       y2="0"
       gradientUnits="userSpaceOnUse"
       gradientTransform="matrix(0,226.7675,226.7675,0,167.65044,13.763967)"
       spreadMethod="pad"
       id="linearGradient32"><stop
         style="stop-opacity:1;stop-color:#45225b"
         offset="0"
         id="stop22" /><stop
         style="stop-opacity:1;stop-color:#45225b"
         offset="0.00131414"
         id="stop24" /><stop
         style="stop-opacity:1;stop-color:#742a94"
         offset="0.362907"
         id="stop26" /><stop
         style="stop-opacity:1;stop-color:#b639e4"
         offset="0.51886612"
         id="stop28" /><stop
         style="stop-opacity:1;stop-color:#b639e4"
         offset="1"
         id="stop30" /></linearGradient><clipPath
       clipPathUnits="userSpaceOnUse"
       id="clipPath42"><path
         d="M 8.609,286.236 H 8.661 Z"
         id="path40" /></clipPath><linearGradient
       x1="0"
       y1="0"
       x2="1"
       y2="0"
       gradientUnits="userSpaceOnUse"
       gradientTransform="matrix(0,0.001,0.001,0,8.6350565,286.23602)"
       spreadMethod="pad"
       id="linearGradient58"><stop
         style="stop-opacity:1;stop-color:#45225b"
         offset="0"
         id="stop48" /><stop
         style="stop-opacity:1;stop-color:#45225b"
         offset="0.00131414"
         id="stop50" /><stop
         style="stop-opacity:1;stop-color:#742a94"
         offset="0.362907"
         id="stop52" /><stop
         style="stop-opacity:1;stop-color:#b639e4"
         offset="0.51886612"
         id="stop54" /><stop
         style="stop-opacity:1;stop-color:#b639e4"
         offset="1"
         id="stop56" /></linearGradient><clipPath
       clipPathUnits="userSpaceOnUse"
       id="clipPath68"><path
         d="m 13.144,284.681 47.795,-44.253 6.471,-6.004 141.513,-131.007 v 130.955 l 4.659,4.71 v -47.775 h 3.882 v 51.709 l 5.849,5.901 v -72.983 h 3.882 v 76.917 l 6.573,6.677 V 77.796 75.523 L 233.421,75.84 208.923,98.138 67.41,229.144 55.246,240.428 7.315,284.787"
         id="path66" /></clipPath><linearGradient
       x1="0"
       y1="0"
       x2="1"
       y2="0"
       gradientUnits="userSpaceOnUse"
       gradientTransform="matrix(0,209.26373,209.26373,0,120.54169,75.523109)"
       spreadMethod="pad"
       id="linearGradient84"><stop
         style="stop-opacity:1;stop-color:#45225b"
         offset="0"
         id="stop74" /><stop
         style="stop-opacity:1;stop-color:#45225b"
         offset="0.00131414"
         id="stop76" /><stop
         style="stop-opacity:1;stop-color:#742a94"
         offset="0.362907"
         id="stop78" /><stop
         style="stop-opacity:1;stop-color:#b639e4"
         offset="0.51886612"
         id="stop80" /><stop
         style="stop-opacity:1;stop-color:#b639e4"
         offset="1"
         id="stop82" /></linearGradient></defs><sodipodi:namedview
     id="namedview4"
     pagecolor="#ffffff"
     bordercolor="#666666"
     borderopacity="1.0"
     inkscape:pageshadow="2"
     inkscape:pageopacity="0.0"
     inkscape:pagecheckerboard="0" /><g
     id="g8"
     inkscape:groupmode="layer"
     inkscape:label="e85ff535f4d1cee1c0c625595e8ba4ec"
     transform="matrix(1.3333333,0,0,-1.3333333,-9.7533331,381.64799)"><g
       id="g10"><g
         id="g12"
         clip-path="url(#clipPath16)"><g
           id="g18"><g
             id="g20"><path
               d="m 292.685,13.764 h -5.85 L 233.768,59.99 V 36.283 L 67.41,184.94 v -122 l -4.142,-4.192 v 47.827 H 59.335 V 54.762 l -6.16,-6.211 v 72.361 H 49.293 V 44.617 l -6.677,-6.781 v 202.695 l 5.59,-5.124 L 67.41,217.86 208.923,88.562 233.768,65.839 Z"
               style="fill:url(#linearGradient32);stroke:none"
               id="path34" /></g></g></g></g><g
       id="g36"><g
         id="g38"
         clip-path="url(#clipPath42)"><g
           id="g44"><g
             id="g46"><path
               d="M 8.609,286.236 H 8.661 Z"
               style="fill:url(#linearGradient58);stroke:none"
               id="path60" /></g></g></g></g><g
       id="g62"><g
         id="g64"
         clip-path="url(#clipPath68)"><g
           id="g70"><g
             id="g72"><path
               d="m 13.144,284.681 47.795,-44.253 6.471,-6.004 141.513,-131.007 v 130.955 l 4.659,4.71 v -47.775 h 3.882 v 51.709 l 5.849,5.901 v -72.983 h 3.882 v 76.917 l 6.573,6.677 V 77.796 75.523 L 233.421,75.84 208.923,98.138 67.41,229.144 55.246,240.428 7.315,284.787"
               style="fill:url(#linearGradient84);stroke:none"
               id="path86" /></g></g></g></g></g></svg>
